<?xml version="1.0" encoding="utf-8"?>
<!-- Generator: Adobe Illustrator 16.0.3, SVG Export Plug-In . SVG Version: 6.00 Build 0)  -->
<!DOCTYPE svg PUBLIC "-//W3C//DTD SVG 1.1//EN" "http://www.w3.org/Graphics/SVG/1.1/DTD/svg11.dtd">
<svg version="1.1" id="Calque_1" xmlns="http://www.w3.org/2000/svg" xmlns:xlink="http://www.w3.org/1999/xlink" x="0px" y="0px"
	 width="170.143px" height="98.431px" viewBox="0 0 170.143 98.431" enable-background="new 0 0 170.143 98.431"
	 xml:space="preserve">
<path d="M31.39,50.267h3.571c1.723,0,2.688-0.756,2.688-2.186c0-1.429-0.965-2.185-2.688-2.185H31.39V50.267z M31.39,41.483h2.647
	c1.764,0,2.857-0.672,2.857-2.354c0-1.681-1.093-2.352-2.857-2.352H31.39V41.483z M44.707,49.259c0,3.989-2.73,6.679-8.78,6.679
	H24.584V31.189h11.007c5.251,0,8.066,2.395,8.066,6.471c0,2.9-1.68,4.916-4.327,5.587C42.817,43.963,44.707,46.317,44.707,49.259"/>
<path d="M58.108,52.325c-0.547,2.562-2.521,4.115-5.84,4.115c-3.529,0-6.008-2.185-6.008-6.763V36.525h6.806V48.25
	c0,1.933,0.546,3.107,2.101,3.107c1.764,0,2.857-1.596,2.857-4.747V36.525h6.805v19.411h-6.091L58.108,52.325z"/>
<path d="M71.76,49.259c0.378,1.597,1.596,2.435,3.066,2.435c1.219,0,2.059-0.419,2.059-1.259s-0.713-1.218-2.1-1.512l-2.605-0.548
	c-3.529-0.757-5.377-2.563-5.377-5.758c0-4.705,4.033-6.554,8.359-6.554c4.664,0,7.478,1.933,8.151,5.546l-6.176,0.925
	c-0.21-1.093-0.882-1.723-2.184-1.723c-0.966,0-1.639,0.462-1.639,1.218s0.547,1.134,1.555,1.302l2.604,0.464
	c4.285,0.716,6.092,3.025,6.092,6.304c0,4.578-3.991,6.342-8.78,6.342c-4.411,0-7.352-1.595-8.445-5.041L71.76,49.259z"/>
<path d="M92.302,55.938h-6.763V36.525h6.763V55.938z M88.899,28.122c2.016,0,3.738,1.387,3.738,3.571s-1.723,3.572-3.738,3.572
	c-2.017,0-3.739-1.388-3.739-3.572S86.883,28.122,88.899,28.122"/>
<path d="M101.964,40.266c1.008-2.899,3.277-4.202,6.175-4.202c2.983,0,5.672,1.764,5.672,6.218v13.656h-6.764V44.889
	c0-1.977-0.589-3.195-2.312-3.195c-1.47,0-2.729,0.883-2.729,3.867v10.377h-6.765V36.525h6.092L101.964,40.266z"/>
<path d="M127.713,44.132c0-1.683-0.586-3.152-2.479-3.152c-1.639,0-2.688,1.345-2.855,3.152H127.713z M128.385,48.923l5.631,1.764
	c-1.094,4.159-4.539,5.754-8.402,5.754c-5.756,0-9.957-3.655-9.957-9.998c0-6.555,3.697-10.379,9.789-10.379
	c5.756,0,8.695,3.698,8.695,9.077c0,0.713,0,1.554-0.084,2.437h-11.846c0.127,2.396,1.301,3.697,3.318,3.697
	C126.958,51.274,127.924,50.645,128.385,48.923"/>
<path d="M140.36,49.259c0.377,1.597,1.594,2.435,3.064,2.435c1.219,0,2.061-0.419,2.061-1.259s-0.715-1.218-2.104-1.512
	l-2.604-0.548c-3.527-0.757-5.377-2.563-5.377-5.758c0-4.705,4.033-6.554,8.361-6.554c4.664,0,7.479,1.933,8.15,5.546l-6.176,0.925
	c-0.211-1.093-0.883-1.723-2.186-1.723c-0.965,0-1.639,0.462-1.639,1.218s0.547,1.134,1.555,1.302l2.605,0.464
	c4.285,0.716,6.092,3.025,6.092,6.304c0,4.578-3.992,6.342-8.783,6.342c-4.41,0-7.35-1.595-8.443-5.041L140.36,49.259z"/>
<path d="M158.338,49.259c0.379,1.597,1.598,2.435,3.066,2.435c1.219,0,2.059-0.419,2.059-1.259s-0.713-1.218-2.1-1.512l-2.605-0.548
	c-3.527-0.757-5.377-2.563-5.377-5.758c0-4.705,4.033-6.554,8.359-6.554c4.664,0,7.479,1.933,8.15,5.546l-6.176,0.925
	c-0.209-1.093-0.881-1.723-2.184-1.723c-0.967,0-1.639,0.462-1.639,1.218s0.547,1.134,1.555,1.302l2.605,0.464
	c4.283,0.716,6.09,3.025,6.09,6.304c0,4.578-3.99,6.342-8.779,6.342c-4.412,0-7.352-1.595-8.445-5.041L158.338,49.259z"/>
<path d="M31.432,72.413h2.647c2.395,0,3.445-0.969,3.445-2.73c0-1.764-1.05-2.729-3.445-2.729h-2.647V72.413z M38.447,85.896
	c-0.798-0.672-1.092-1.595-1.386-2.771l-0.756-3.067c-0.42-1.764-1.135-2.1-2.731-2.1h-2.143v7.938h-6.847V61.158H35.17
	c5.546,0,9.369,2.141,9.369,7.769c0,3.906-2.521,5.837-5.251,6.3c2.268,0.462,3.403,1.47,3.991,3.612l1.176,4.244
	c0.294,1.092,0.63,1.933,1.512,2.813H38.447z"/>
<path d="M57.604,74.092c0-1.68-0.588-3.149-2.479-3.149c-1.638,0-2.688,1.344-2.856,3.149H57.604z M58.275,78.881l5.63,1.765
	c-1.093,4.158-4.537,5.756-8.403,5.756c-5.755,0-9.956-3.654-9.956-9.998c0-6.554,3.697-10.375,9.788-10.375
	c5.756,0,8.696,3.696,8.696,9.071c0,0.715,0,1.555-0.083,2.438H52.101c0.126,2.394,1.302,3.696,3.319,3.696
	C56.848,81.233,57.813,80.604,58.275,78.881"/>
<path d="M63.526,66.49h7.141l2.228,7.812c0.797,2.815,1.259,4.748,1.259,4.748h0.084c0,0,0.42-1.933,1.303-4.748l2.521-7.812h6.595
	L77.6,85.896h-7.309L63.526,66.49z"/>
<path d="M92.89,85.896h-6.764V66.49h6.764V85.896z M89.488,58.091c2.015,0,3.737,1.388,3.737,3.569c0,2.186-1.723,3.569-3.737,3.569
	c-2.017,0-3.739-1.384-3.739-3.569C85.749,59.479,87.472,58.091,89.488,58.091"/>
<path d="M107.046,74.092c0-1.68-0.586-3.149-2.478-3.149c-1.639,0-2.688,1.344-2.858,3.149H107.046z M107.719,78.881l5.63,1.765
	c-1.092,4.158-4.536,5.756-8.402,5.756c-5.756,0-9.955-3.654-9.955-9.998c0-6.554,3.696-10.375,9.788-10.375
	c5.755,0,8.696,3.696,8.696,9.071c0,0.715,0,1.555-0.084,2.438h-11.847c0.127,2.394,1.302,3.696,3.318,3.696
	C106.29,81.233,107.257,80.604,107.719,78.881"/>
<path d="M131.622,66.49l1.389,6.761c0.713,3.487,1.092,6.093,1.092,6.093h0.084c0,0,0.418-2.563,1.217-6.009l1.555-6.845h6.596
	l-5.252,19.406h-7.604l-1.176-5.672c-0.588-2.856-1.051-6.217-1.051-6.217h-0.084c0,0-0.463,3.36-1.051,6.217l-1.176,5.672H118.6
	l-5.251-19.406h6.845l1.555,6.845c0.801,3.446,1.221,6.009,1.221,6.009h0.082c0,0,0.379-2.605,1.092-6.093l1.387-6.761H131.622z"/>
<path d="M59.206,18.192h-0.882c-2.437,0-3.276,0.757-3.276,2.017c0,0.925,0.629,1.64,1.806,1.64c1.134,0,2.352-0.589,2.352-2.396
	V18.192z M65.76,19.579c0,0.925,0.252,1.429,0.966,1.429c0.42,0,0.84-0.168,1.218-0.378v4.791c-0.924,0.672-1.806,0.924-3.361,0.924
	c-2.604,0-4.032-1.178-4.789-3.067c-1.092,2.017-2.814,3.151-5.587,3.151c-3.57,0-5.798-2.102-5.798-5.421
	c0-4.16,2.983-6.261,8.823-6.261h1.974v-1.302c0-1.261-0.42-2.144-1.638-2.144c-1.176,0-1.722,0.715-1.806,2.312l-6.47-1.009
	c0.377-3.991,3.487-6.513,8.486-6.513c5.545,0,7.982,2.437,7.982,6.682V19.579z"/>
<path d="M82.27,14.201c-0.798-0.294-1.26-0.505-2.352-0.505c-1.597,0-3.529,0.631-3.529,4.076v8.194h-6.765V6.555h5.798l0.672,4.789
	c0.546-3.235,3.278-4.789,6.596-4.789L82.27,14.201z"/>
<path d="M83.348,6.554h7.143l2.226,7.815c0.797,2.816,1.261,4.748,1.261,4.748h0.084c0,0,0.421-1.932,1.302-4.748l2.52-7.815h6.598
	l-7.059,19.412H90.11L83.348,6.554z"/>
<path d="M114.225,18.192h-0.883c-2.437,0-3.276,0.757-3.276,2.017c0,0.925,0.629,1.64,1.807,1.64c1.134,0,2.353-0.589,2.353-2.396
	V18.192z M120.778,19.579c0,0.925,0.252,1.429,0.967,1.429c0.422,0,0.84-0.168,1.217-0.378v4.791
	c-0.922,0.672-1.807,0.924-3.361,0.924c-2.602,0-4.031-1.178-4.789-3.067c-1.092,2.017-2.813,3.151-5.585,3.151
	c-3.57,0-5.798-2.102-5.798-5.421c0-4.16,2.983-6.261,8.822-6.261h1.975v-1.302c0-1.261-0.42-2.144-1.639-2.144
	c-1.177,0-1.724,0.715-1.806,2.312l-6.471-1.009c0.377-3.991,3.487-6.513,8.487-6.513c5.545,0,7.981,2.437,7.981,6.682V19.579z"/>
<path d="M137.288,14.201c-0.799-0.294-1.26-0.505-2.354-0.505c-1.596,0-3.527,0.631-3.527,4.076v8.194h-6.766V6.555h5.799
	l0.67,4.789c0.547-3.235,3.279-4.789,6.598-4.789L137.288,14.201z"/>
<path d="M152.075,14.873c0-2.478-1.217-3.824-3.191-3.824c-1.977,0-3.656,1.473-3.656,5.337c0,3.193,1.344,4.875,3.572,4.875
	c1.721,0,3.275-1.304,3.275-3.95V14.873z M152.032,0h6.807v25.966h-6.135l-0.629-3.36c-0.715,2.604-3.025,3.866-5.965,3.866
	c-4.539,0-7.773-3.53-7.773-9.834c0-6.513,3.107-10.547,8.57-10.547c2.48,0,4.453,1.136,5.125,2.984V0z"/>
<polygon points="24.584,25.966 24.584,1.219 31.474,1.219 31.474,10.419 39.96,10.419 39.96,1.219 46.85,1.219 46.85,25.966 
	39.96,25.966 39.96,16.387 31.474,16.387 31.474,25.966 "/>
<g>
	<path fill="#A8042D" d="M24.595,98.287v-7.064h5.097v2.111h-2.639v0.959h2.267v2.003h-2.267v1.991H24.595z"/>
	<path fill="#A8042D" d="M34.517,98.287c-0.228-0.24-0.3-0.456-0.396-0.876l-0.12-0.551c-0.084-0.42-0.264-0.552-0.612-0.552h-0.444
		v1.979h-2.411v-7.064h3.418c1.619,0,2.831,0.587,2.831,2.279c0,1.175-0.576,1.69-1.427,1.835v0.048
		c0.624,0.096,0.936,0.407,1.116,1.043l0.264,0.936c0.12,0.408,0.216,0.66,0.479,0.924H34.517z M32.945,94.449h0.72
		c0.36,0,0.6-0.168,0.6-0.588c0-0.359-0.216-0.563-0.576-0.563h-0.744V94.449z"/>
	<path fill="#A8042D" d="M42.329,97.327h-2.327l-0.288,0.96h-2.447l2.315-7.064h3.274l2.327,7.064H42.64L42.329,97.327z
		 M41.513,94.521c-0.204-0.768-0.348-1.38-0.348-1.38h-0.048c0,0-0.108,0.612-0.312,1.38l-0.252,0.971h1.211L41.513,94.521z"/>
	<path fill="#A8042D" d="M49.409,93.298c0.468,0.672,0.744,1.151,0.744,1.151h0.048c0,0-0.024-0.575-0.024-1.247v-1.979h2.458v7.064
		h-2.039l-1.511-2.075c-0.456-0.636-0.768-1.139-0.768-1.139H48.27c0,0,0.024,0.552,0.024,1.451v1.763h-2.458v-7.064h2.159
		L49.409,93.298z"/>
	<path fill="#A8042D" d="M57.113,96.38c0.587,0,0.852-0.323,0.936-0.959l2.314,1.104c-0.54,1.283-1.571,1.906-3.31,1.906
		c-2.087,0-3.514-1.295-3.514-3.646c0-2.363,1.248-3.706,3.646-3.706c1.607,0,2.818,0.755,3.167,1.955L58,94.006
		c-0.06-0.48-0.312-0.864-0.852-0.864c-0.624,0-1.055,0.408-1.055,1.655C56.094,95.744,56.37,96.38,57.113,96.38z"/>
	<path fill="#A8042D" d="M66.316,98.287h-5.349v-7.064h5.301v2.015H63.33v0.636h2.615v1.763H63.33v0.636h2.986V98.287z"/>
</g>
<g>
	<path fill="#FFFFFF" d="M10.274,26.616l-0.155-0.083C10.057,26.501,0.022,21.27,0,9.077v-0.32V0.564h21.142v8.192v0.32
		C21.12,21.27,11.092,26.501,11.017,26.541l-0.445,0.232L10.274,26.616z"/>
	<path fill="#000101" d="M6.878,11.077c0.042,0.247,0.222,0.602,0.456,0.725c0.146,0.08,0.618,0.088,0.521,0.366
		c-0.064,0.128-0.151,0.383-0.279,0.267c-0.129-0.113-0.348-0.412-0.434-0.429c-0.086-0.015-0.073,0.116-0.038,0.158
		c0.049,0.059,0.198,0.271,0.284,0.372c0.106,0.12,0.142,0.347-0.044,0.433c-0.19,0.088-0.381-0.025-0.378-0.125
		c0.009-0.151-0.084-0.584-0.166-0.584c-0.064,0-0.069,0.111-0.058,0.236c-0.029,0.253,0.142,0.458,0.122,0.589
		c-0.02,0.132-0.049,0.266-0.272,0.264c-0.226-0.007-0.252-0.132-0.275-0.264c-0.02-0.131,0.153-0.335,0.122-0.589
		c0.011-0.125,0.007-0.236-0.055-0.236c-0.082,0-0.175,0.433-0.168,0.584c0.004,0.1-0.186,0.213-0.375,0.125
		c-0.188-0.086-0.157-0.313-0.051-0.433c0.086-0.101,0.24-0.313,0.284-0.372c0.038-0.042,0.051-0.173-0.035-0.158
		c-0.084,0.017-0.303,0.316-0.434,0.429c-0.129,0.116-0.215-0.139-0.279-0.267c-0.098-0.277,0.374-0.286,0.521-0.366
		c0.232-0.123,0.412-0.479,0.457-0.725c0.053-0.318,0.124-0.45,0.29-0.457C6.759,10.619,6.823,10.759,6.878,11.077 M7.168,11.006
		c0.162,0.021,0.284,0.045,0.138,0.236c-0.144,0.195-0.179,0.18-0.197,0.043C7.093,11.151,7.018,10.993,7.168,11.006 M6.063,11.27
		c-0.016,0.139-0.054,0.152-0.2-0.041c-0.145-0.195-0.02-0.221,0.142-0.236C6.154,10.976,6.079,11.133,6.063,11.27 M8.154,16.14
		c-0.106,0.773-0.986,0.981-1.391,0.836c0.146,0.733-0.279,1.506-1.356,1.382c0.063,0.546-0.056,1.164-0.853,1.313
		c-1.75-2.518-3.209-5.904-3.274-10.267c0.006,0,0.014-0.002,0.02-0.002h0.201c0.461,0.05,1.135,0.438,1.035,1.386
		c0.663-0.042,1.522,0.107,1.394,1.38c0.966-0.042,1.524,0.312,1.416,1.4c0.815-0.061,1.504,0.253,1.396,1.342
		C7.641,14.91,8.263,15.368,8.154,16.14 M9.528,19.8c-0.084-0.816,0.408-1.358,1.072-1.358c0.665,0,1.161,0.542,1.075,1.358
		c0.729-0.208,1.697,0.146,1.46,1.4c0.833-0.282,1.475,0.156,1.513,0.837c-1.841,1.921-3.581,2.987-4.079,3.28
		c-0.509-0.291-2.21-1.34-4.022-3.217c0-0.718,0.663-1.192,1.522-0.9C7.833,19.946,8.799,19.592,9.528,19.8 M9.878,15.692
		c0.233-0.124,0.414-0.483,0.454-0.728c0.058-0.317,0.126-0.449,0.292-0.454c0.164-0.007,0.233,0.136,0.288,0.454
		c0.042,0.245,0.222,0.604,0.454,0.728c0.149,0.075,0.618,0.086,0.523,0.365c-0.067,0.128-0.153,0.381-0.279,0.269
		c-0.129-0.116-0.351-0.414-0.437-0.431c-0.087-0.015-0.071,0.115-0.036,0.158c0.046,0.055,0.197,0.273,0.284,0.37
		c0.108,0.123,0.139,0.345-0.049,0.436c-0.188,0.089-0.381-0.027-0.376-0.127c0.011-0.152-0.084-0.584-0.164-0.584
		c-0.067,0-0.069,0.11-0.06,0.233c-0.027,0.26,0.146,0.463,0.125,0.594c-0.022,0.127-0.049,0.263-0.273,0.258
		c-0.228-0.004-0.254-0.131-0.272-0.258c-0.025-0.131,0.146-0.334,0.12-0.594c0.008-0.123,0.006-0.233-0.058-0.233
		c-0.082,0-0.175,0.433-0.167,0.584c0.007,0.1-0.186,0.216-0.374,0.127c-0.189-0.09-0.158-0.313-0.049-0.436
		c0.084-0.097,0.237-0.315,0.284-0.37c0.033-0.043,0.049-0.173-0.038-0.158c-0.083,0.018-0.307,0.315-0.433,0.431
		c-0.129,0.112-0.213-0.141-0.28-0.269C9.26,15.779,9.729,15.768,9.878,15.692 M10.037,14.882c0.15-0.018,0.076,0.141,0.06,0.275
		c-0.016,0.138-0.056,0.154-0.197-0.041C9.751,14.926,9.875,14.899,10.037,14.882 M11.202,14.899c0.162,0.015,0.284,0.04,0.14,0.23
		c-0.144,0.194-0.181,0.182-0.197,0.043C11.13,15.036,11.052,14.882,11.202,14.899 M14.485,14.91
		c-0.109-1.089,0.576-1.402,1.394-1.342c-0.106-1.088,0.45-1.442,1.416-1.4c-0.129-1.273,0.731-1.422,1.395-1.38
		c-0.102-0.948,0.574-1.338,1.033-1.386h0.144c-0.062,4.357-1.521,7.736-3.267,10.251c-0.725-0.182-0.843-0.768-0.785-1.295
		c-1.072,0.125-1.5-0.648-1.354-1.382c-0.406,0.145-1.285-0.063-1.393-0.836C12.961,15.368,13.583,14.91,14.485,14.91
		 M13.736,11.802c0.237-0.123,0.417-0.479,0.457-0.725c0.058-0.318,0.126-0.45,0.292-0.457c0.164-0.002,0.232,0.139,0.288,0.457
		c0.044,0.247,0.223,0.602,0.456,0.725c0.146,0.08,0.618,0.088,0.523,0.366c-0.066,0.128-0.153,0.381-0.281,0.267
		c-0.128-0.113-0.348-0.412-0.434-0.429c-0.086-0.015-0.073,0.116-0.038,0.158c0.049,0.059,0.199,0.271,0.286,0.369
		c0.106,0.123,0.138,0.35-0.051,0.436c-0.187,0.088-0.381-0.025-0.375-0.125c0.007-0.151-0.086-0.584-0.164-0.584
		c-0.066,0-0.071,0.111-0.06,0.236c-0.028,0.253,0.142,0.458,0.122,0.589c-0.022,0.132-0.046,0.266-0.272,0.264
		c-0.226-0.007-0.253-0.132-0.274-0.264c-0.022-0.131,0.15-0.335,0.124-0.589c0.009-0.125,0.006-0.236-0.06-0.236
		c-0.082,0-0.175,0.433-0.166,0.584c0.004,0.1-0.188,0.213-0.377,0.125c-0.186-0.086-0.155-0.313-0.046-0.433
		c0.086-0.101,0.234-0.313,0.285-0.372c0.032-0.042,0.044-0.173-0.038-0.158c-0.086,0.017-0.307,0.316-0.437,0.429
		c-0.126,0.116-0.212-0.139-0.279-0.267C13.123,11.891,13.593,11.882,13.736,11.802 M13.898,10.993
		c0.153-0.017,0.076,0.14,0.06,0.277c-0.015,0.139-0.053,0.152-0.197-0.041C13.615,11.033,13.736,11.008,13.898,10.993
		 M15.205,11.242c-0.148,0.195-0.184,0.18-0.199,0.043c-0.016-0.134-0.093-0.292,0.055-0.279
		C15.228,11.027,15.345,11.051,15.205,11.242 M15.062,18.785c0.166,0.02,0.283,0.043,0.144,0.236
		c-0.148,0.195-0.184,0.178-0.199,0.043C14.99,18.927,14.913,18.771,15.062,18.785 M13.898,18.771
		c0.153-0.018,0.076,0.139,0.06,0.276c-0.015,0.137-0.053,0.151-0.197-0.042C13.615,18.811,13.736,18.787,13.898,18.771
		 M14.275,20.034c-0.082,0-0.175,0.433-0.166,0.588c0.004,0.1-0.188,0.21-0.377,0.124c-0.186-0.088-0.155-0.312-0.046-0.436
		c0.086-0.097,0.234-0.313,0.285-0.369c0.032-0.046,0.044-0.172-0.038-0.157c-0.086,0.016-0.307,0.314-0.437,0.429
		c-0.126,0.113-0.212-0.143-0.279-0.268c-0.095-0.277,0.375-0.289,0.518-0.365c0.237-0.125,0.417-0.484,0.457-0.729
		c0.058-0.316,0.126-0.449,0.292-0.454c0.164-0.005,0.232,0.138,0.288,0.454c0.044,0.244,0.223,0.603,0.456,0.729
		c0.146,0.076,0.618,0.088,0.523,0.365c-0.066,0.125-0.153,0.381-0.281,0.268c-0.128-0.115-0.348-0.413-0.434-0.429
		c-0.086-0.015-0.073,0.111-0.038,0.157c0.049,0.057,0.199,0.272,0.286,0.369c0.106,0.124,0.138,0.347-0.051,0.436
		c-0.187,0.086-0.381-0.024-0.375-0.124c0.007-0.155-0.086-0.588-0.164-0.588c-0.066,0-0.071,0.116-0.06,0.236
		c-0.028,0.257,0.142,0.461,0.122,0.592c-0.022,0.129-0.046,0.265-0.272,0.261c-0.226-0.006-0.253-0.132-0.274-0.261
		c-0.022-0.131,0.15-0.335,0.124-0.592C14.344,20.15,14.341,20.034,14.275,20.034 M7.343,18.785c0.158,0.02,0.282,0.043,0.136,0.236
		c-0.145,0.195-0.182,0.178-0.198,0.043C7.266,18.927,7.19,18.771,7.343,18.785 M6.176,18.771c0.15-0.018,0.075,0.139,0.058,0.276
		c-0.016,0.137-0.049,0.151-0.197-0.042C5.893,18.811,6.014,18.787,6.176,18.771 M6.016,19.581c0.233-0.125,0.413-0.484,0.457-0.729
		c0.054-0.316,0.122-0.449,0.291-0.454c0.164-0.005,0.232,0.138,0.288,0.454c0.042,0.244,0.222,0.603,0.457,0.729
		c0.146,0.076,0.614,0.088,0.519,0.365c-0.064,0.125-0.148,0.381-0.277,0.268c-0.128-0.115-0.35-0.413-0.434-0.429
		c-0.086-0.015-0.073,0.111-0.04,0.157c0.051,0.057,0.2,0.272,0.286,0.369c0.106,0.124,0.142,0.347-0.049,0.436
		c-0.186,0.086-0.381-0.024-0.374-0.124c0.007-0.155-0.087-0.588-0.168-0.588c-0.064,0-0.067,0.116-0.06,0.236
		c-0.027,0.257,0.146,0.461,0.125,0.592c-0.022,0.129-0.048,0.265-0.272,0.261c-0.229-0.006-0.255-0.132-0.275-0.261
		c-0.02-0.131,0.148-0.335,0.122-0.592c0.01-0.12,0.007-0.236-0.058-0.236c-0.082,0-0.174,0.433-0.166,0.588
		c0.004,0.1-0.189,0.21-0.377,0.124c-0.186-0.088-0.155-0.312-0.048-0.436c0.086-0.097,0.236-0.313,0.283-0.369
		c0.038-0.046,0.051-0.172-0.035-0.157c-0.086,0.016-0.306,0.314-0.437,0.429c-0.126,0.113-0.212-0.143-0.277-0.268
		C5.398,19.669,5.868,19.657,6.016,19.581 M14.158,8.763c0.124,0.188,0.21,0.41,0.25,0.639c0.108,0.643-0.207,1.323-1.382,1.384
		c-0.02,0.964-0.257,1.359-1.48,1.38c0.104,1.025-0.429,1.358-1.008,1.358c-0.583,0-1.114-0.333-1.01-1.358
		c-1.223-0.021-1.46-0.416-1.48-1.38c-1.176-0.061-1.488-0.741-1.38-1.384c0.036-0.229,0.125-0.451,0.248-0.639H0.64v0.319
		c0.009,11.789,9.756,16.87,9.785,16.887l0.146,0.079l0.153-0.079c0.029-0.017,9.775-5.098,9.784-16.887V8.763H14.158z"/>
	<rect x="0.64" y="1.203" fill="#000101" width="19.868" height="6.911"/>
	<path fill="#A8042D" d="M18.657,5.755c0,0.115-0.093,0.21-0.231,0.261v0.482c0,0.048-0.04,0.094-0.09,0.094h-4.523
		c-0.054,0-0.091-0.045-0.091-0.094V6.016c-0.132-0.051-0.23-0.146-0.23-0.261c0-0.118,0.098-0.213,0.23-0.262V4.142
		c-0.132-0.045-0.23-0.147-0.23-0.262c0-0.115,0.098-0.21,0.23-0.258V3.005c0-0.051,0.038-0.09,0.091-0.09l0.272,0.052
		c0,0,0.326,0.023,0.529,0.013c0,0,0.335-0.002,0.492,0.002c0.286,0.008,0.882,0.092,1.019,0.489
		c0.128-0.361,0.591-0.443,0.919-0.489c0.158-0.02,0.492-0.002,0.492-0.002c0.204,0.01,0.529-0.013,0.529-0.013l0.271-0.052
		c0.051,0,0.09,0.039,0.09,0.09v0.617c0.138,0.048,0.231,0.139,0.231,0.258c0,0.119-0.093,0.216-0.231,0.262v1.351
		C18.563,5.542,18.657,5.637,18.657,5.755 M13.147,5.755c0,0.115-0.093,0.21-0.228,0.261v0.482c0,0.048-0.042,0.094-0.091,0.094
		H8.303c-0.051,0-0.091-0.045-0.091-0.094V6.016c-0.135-0.051-0.23-0.146-0.23-0.261c0-0.118,0.095-0.213,0.23-0.262V4.142
		c-0.135-0.045-0.23-0.147-0.23-0.262c0-0.115,0.095-0.21,0.23-0.258V3.005c0-0.051,0.04-0.09,0.091-0.09l0.274,0.052
		c0,0,0.326,0.023,0.53,0.013c0,0,0.277-0.013,0.434-0.013c0.228,0,0.507,0.02,0.718,0.109c0.182,0.082,0.321,0.162,0.357,0.354
		c0.042-0.193,0.177-0.273,0.36-0.354c0.21-0.089,0.388-0.1,0.614-0.109c0.16-0.004,0.436,0.013,0.436,0.013
		c0.202,0.01,0.529-0.013,0.529-0.013l0.272-0.052c0.049,0,0.091,0.039,0.091,0.09v0.617c0.135,0.048,0.228,0.139,0.228,0.258
		c0,0.119-0.093,0.216-0.228,0.262v1.351C13.054,5.542,13.147,5.637,13.147,5.755 M7.641,5.755c0,0.115-0.096,0.21-0.233,0.261
		v0.482c0,0.048-0.04,0.094-0.09,0.094H2.791C2.742,6.592,2.7,6.547,2.7,6.499V6.016C2.568,5.965,2.472,5.87,2.472,5.755
		c0-0.118,0.096-0.213,0.228-0.262V4.142C2.568,4.097,2.472,3.995,2.472,3.88c0-0.115,0.096-0.21,0.228-0.258V3.005
		c0-0.051,0.042-0.09,0.091-0.09l0.272,0.052c0,0,0.331,0.023,0.533,0.013c0,0,0.279-0.013,0.434-0.013c0.23,0,0.51,0.02,0.72,0.109
		C4.931,3.157,5.068,3.237,5.106,3.43c0.041-0.193,0.177-0.273,0.361-0.354c0.211-0.089,0.388-0.1,0.614-0.109
		C6.238,2.962,6.518,2.98,6.518,2.98c0.201,0.01,0.527-0.013,0.527-0.013l0.273-0.052c0.05,0,0.09,0.039,0.09,0.09v0.617
		C7.545,3.67,7.641,3.761,7.641,3.88c0,0.119-0.096,0.216-0.233,0.262v1.351C7.545,5.542,7.641,5.637,7.641,5.755 M1.276,7.476
		h18.595V1.842H1.276V7.476z"/>
	<path fill="#FFFFFF" d="M8.777,6.366c-0.085,0-0.157-0.059-0.157-0.143V3.132c0-0.026,0.006-0.05,0.022-0.071L8.38,3.009
		c-0.049,0-0.084,0.039-0.084,0.086v0.59C8.165,3.706,8.063,3.783,8.063,3.88c0,0.095,0.102,0.174,0.233,0.193v1.489
		C8.165,5.582,8.063,5.661,8.063,5.756c0,0.098,0.102,0.177,0.233,0.194v0.462C8.296,6.459,8.331,6.5,8.38,6.5h1.956
		c-0.028-0.039-0.048-0.084-0.058-0.134H8.777z M3.573,6.065c-0.026,0-0.056-0.007-0.076-0.02L3.234,6.269
		C3.24,6.273,3.252,6.273,3.263,6.273h1.5c0.013-0.088,0.06-0.161,0.133-0.208H3.573z M5.057,6.112c-0.115,0-0.206,0.093-0.206,0.2
		c0,0.084,0.049,0.154,0.12,0.188h0.173C5.21,6.466,5.258,6.396,5.258,6.312C5.258,6.206,5.168,6.112,5.057,6.112 M7.539,3.88
		c0-0.097-0.1-0.175-0.231-0.193V3.095c0-0.047-0.038-0.086-0.084-0.086L7.056,3.043c0.017,0.022,0.031,0.052,0.031,0.089v3.091
		c0,0.084-0.074,0.143-0.156,0.143H5.347C5.338,6.416,5.316,6.461,5.29,6.5h1.934c0.046,0,0.084-0.041,0.084-0.088V5.95
		c0.131-0.019,0.231-0.096,0.231-0.194c0-0.095-0.1-0.174-0.231-0.193V4.074C7.439,4.055,7.539,3.976,7.539,3.88 M6.933,6.273
		L6.674,6.056c-0.015,0.007-0.038,0.01-0.055,0.01H5.217c0.071,0.047,0.12,0.12,0.133,0.208H6.933z M9.087,6.065
		c-0.024,0-0.047-0.005-0.064-0.018L8.757,6.271c0.006,0.002,0.013,0.002,0.02,0.002h1.5c0.013-0.088,0.06-0.161,0.133-0.208H9.087z
		 M17.948,6.267l-0.255-0.213c-0.013,0.006-0.026,0.009-0.042,0.009H16.24c0.072,0.043,0.124,0.117,0.137,0.204H17.948z
		 M18.337,5.563V4.074c0.133-0.019,0.232-0.098,0.232-0.193c0-0.097-0.099-0.175-0.232-0.195v-0.59c0-0.047-0.038-0.086-0.086-0.086
		l-0.162,0.034c0.018,0.022,0.029,0.05,0.029,0.084v3.09c0,0.084-0.074,0.143-0.16,0.143h-1.582c-0.007,0.052-0.028,0.1-0.06,0.141
		h1.934c0.049,0,0.086-0.041,0.086-0.088V5.95c0.133-0.017,0.232-0.096,0.232-0.194C18.57,5.661,18.471,5.582,18.337,5.563
		 M16.085,6.112c-0.111,0-0.202,0.093-0.202,0.2c0,0.084,0.046,0.154,0.116,0.188h0.172c0.069-0.034,0.117-0.104,0.117-0.188
		C16.288,6.206,16.2,6.112,16.085,6.112 M12.454,6.273l-0.261-0.22c-0.018,0.006-0.036,0.012-0.056,0.012h-1.404
		c0.07,0.047,0.118,0.12,0.13,0.208H12.454z M10.571,6.112c-0.113,0-0.204,0.093-0.204,0.2c0,0.084,0.047,0.154,0.115,0.188h0.175
		c0.069-0.034,0.118-0.104,0.118-0.188C10.775,6.206,10.682,6.112,10.571,6.112 M14.603,6.063c-0.025,0-0.049-0.007-0.067-0.017
		l-0.261,0.221h0.015h1.502c0.013-0.087,0.069-0.161,0.139-0.204H14.603z M14.29,6.359c-0.081,0-0.155-0.059-0.155-0.143v-3.09
		c0-0.025,0.006-0.047,0.018-0.066l-0.257-0.052c-0.044,0-0.086,0.039-0.086,0.086v0.59c-0.131,0.021-0.229,0.098-0.229,0.195
		c0,0.095,0.098,0.174,0.229,0.193v1.489c-0.131,0.019-0.229,0.098-0.229,0.193c0,0.098,0.098,0.177,0.229,0.194v0.462
		c0,0.047,0.042,0.088,0.086,0.088h1.958c-0.031-0.041-0.053-0.088-0.062-0.141H14.29z M13.052,3.88
		c0-0.097-0.098-0.175-0.229-0.193V3.095c0-0.047-0.04-0.086-0.086-0.086l-0.168,0.034C12.587,3.065,12.6,3.095,12.6,3.132v3.091
		c0,0.084-0.073,0.143-0.155,0.143h-1.584c-0.008,0.05-0.028,0.095-0.058,0.134h1.934c0.046,0,0.086-0.041,0.086-0.088V5.95
		c0.131-0.019,0.229-0.096,0.229-0.194c0-0.095-0.098-0.174-0.229-0.193V4.074C12.955,4.055,13.052,3.976,13.052,3.88 M9.929,4.234
		c0-0.208-0.063-0.294-0.182-0.294c-0.083,0-0.086,0.02-0.093,0.086v0.52C9.852,4.543,9.929,4.498,9.929,4.234 M14.467,5.927V3.108
		c0.002-0.018,0.007-0.031,0.014-0.043c-0.071,0.006-0.137,0.006-0.188,0.006c-0.036,0-0.062,0.033-0.062,0.056V6.18l0.246-0.208
		C14.472,5.957,14.467,5.941,14.467,5.927 M12.268,5.933c0,0.019-0.005,0.037-0.011,0.05l0.253,0.211V3.132
		c0-0.021-0.034-0.057-0.067-0.057c-0.05,0-0.113,0-0.186-0.002c0.004,0.01,0.008,0.021,0.011,0.038V5.933z M11.652,3.922
		c-0.069,0.002-0.139,0.004-0.139,0.142v0.99c0,0.128,0.06,0.141,0.139,0.147v0.052h-0.52V5.201
		c0.082-0.014,0.137-0.021,0.137-0.147v-0.99c0-0.131-0.067-0.138-0.137-0.142V3.866h0.52V3.922z M12.173,5.933V3.119L12.17,3.116
		c-0.009-0.008-0.022-0.017-0.04-0.025c-0.031-0.015-0.073-0.026-0.084-0.026c-0.082,0-0.21-0.004-0.352-0.004
		c-0.224,0-0.49,0.017-0.691,0.103c-0.206,0.085-0.344,0.223-0.346,0.489v2.318h1.48C12.157,5.972,12.173,5.954,12.173,5.933
		 M17.764,5.992l0.261,0.218V3.127c0-0.023-0.033-0.056-0.069-0.056c-0.049,0-0.113,0-0.186-0.006
		c0.005,0.013,0.009,0.026,0.011,0.043v2.818C17.781,5.952,17.775,5.974,17.764,5.992 M14.667,3.866h0.897v0.413H15.52
		c-0.031-0.326-0.184-0.338-0.286-0.344v1.078c0,0.169,0.038,0.174,0.148,0.188v0.052h-0.534V5.201
		c0.108-0.014,0.146-0.019,0.146-0.188V3.935c-0.106,0.006-0.257,0.018-0.285,0.344h-0.047L14.667,3.866z M15.595,5.199
		c0.08-0.021,0.1-0.088,0.148-0.244l0.328-1.118h0.042l0.331,1.075c0.068,0.215,0.09,0.29,0.162,0.286v0.045h-0.481V5.199
		c0.093-0.014,0.118-0.017,0.118-0.084c0-0.054-0.047-0.206-0.066-0.272h-0.333c-0.044,0.148-0.066,0.234-0.066,0.269
		c0,0.074,0.071,0.084,0.119,0.088v0.045h-0.301V5.199z M16.769,4.75h0.042c0.029,0.206,0.115,0.438,0.307,0.438
		c0.179,0,0.183-0.202,0.183-0.232c0-0.135-0.071-0.185-0.167-0.25l-0.097-0.063c-0.255-0.166-0.255-0.34-0.255-0.435
		c0-0.127,0.044-0.407,0.328-0.407c0.117,0,0.188,0.069,0.232,0.069c0.034,0,0.041-0.03,0.051-0.072h0.042v0.444h-0.04
		c-0.029-0.143-0.117-0.376-0.294-0.376c-0.075,0-0.157,0.063-0.157,0.196c0,0.111,0.029,0.154,0.155,0.241l0.214,0.147
		c0.053,0.033,0.165,0.154,0.165,0.374c0,0.182-0.095,0.432-0.368,0.432c-0.142,0-0.208-0.074-0.257-0.074
		c-0.029,0-0.035,0.037-0.042,0.074h-0.042V4.75z M14.603,5.97h3.048c0.02,0,0.038-0.02,0.038-0.043V3.116
		c-0.002-0.005-0.002-0.005-0.004-0.008c-0.009-0.007-0.02-0.015-0.035-0.024c-0.031-0.01-0.071-0.023-0.082-0.023s-0.024,0-0.038,0
		h-0.031c-0.284,0-0.624,0.021-0.884,0.118c-0.264,0.103-0.441,0.261-0.443,0.563h-0.093c-0.002-0.302-0.179-0.46-0.438-0.563
		c-0.262-0.097-0.602-0.118-0.886-0.118H14.74c-0.018,0-0.033,0-0.047,0c-0.024-0.004-0.117,0.034-0.13,0.05v2.815
		C14.563,5.95,14.58,5.97,14.603,5.97 M3.263,6.366c-0.084,0-0.157-0.059-0.159-0.143V3.132C3.106,3.106,3.112,3.08,3.126,3.061
		L2.867,3.009c-0.049,0-0.084,0.039-0.084,0.086v0.59C2.651,3.706,2.55,3.783,2.55,3.88c0,0.095,0.102,0.174,0.232,0.193v1.489
		C2.651,5.582,2.55,5.661,2.55,5.756c0,0.098,0.102,0.177,0.232,0.194v0.462c0,0.047,0.035,0.088,0.084,0.088h1.956
		C4.793,6.461,4.774,6.416,4.765,6.366H3.263z M16.003,4.269l-0.14,0.494h0.29L16.003,4.269z M3.728,3.88h0.499v0.053
		c-0.093,0.006-0.13,0.006-0.13,0.084c0,0.038,0.033,0.124,0.046,0.176l0.193,0.645l0.19-0.672c0.014-0.045,0.029-0.1,0.029-0.141
		c0-0.082-0.042-0.086-0.126-0.092V3.88h0.315v0.053c-0.08,0.01-0.1,0.052-0.133,0.165L4.271,5.298h-0.04L3.85,4.074
		C3.81,3.95,3.788,3.943,3.728,3.933V3.88z M3.573,5.972h1.475V3.653h0.002C5.046,3.387,4.911,3.252,4.71,3.164
		C4.508,3.08,4.245,3.061,4.025,3.061c-0.15,0-0.274,0.01-0.358,0.01c-0.011,0-0.049,0.004-0.078,0.015
		C3.562,3.095,3.54,3.111,3.531,3.119v2.814C3.531,5.954,3.551,5.972,3.573,5.972 M6.292,5.29H5.418V5.236
		c0.084-0.011,0.133-0.018,0.133-0.143V4.102c0-0.133-0.062-0.135-0.133-0.143V3.907h0.86v0.411H6.241
		c-0.034-0.288-0.138-0.34-0.339-0.34c-0.082,0-0.111,0.007-0.111,0.096v0.474c0.144,0.005,0.22-0.05,0.244-0.305h0.038v0.69H6.034
		C6.016,4.677,5.938,4.617,5.79,4.617V5.11c0,0.092,0.032,0.115,0.126,0.115c0.147,0,0.297-0.052,0.39-0.364h0.042L6.292,5.29z
		 M6.659,5.933V3.119L6.657,3.116C6.646,3.108,6.632,3.1,6.615,3.091C6.584,3.076,6.54,3.065,6.531,3.065
		c-0.082,0-0.208-0.004-0.35-0.004c-0.224,0-0.492,0.017-0.693,0.103C5.281,3.25,5.146,3.387,5.144,3.653v2.318H6.62
		C6.639,5.972,6.659,5.954,6.659,5.933 M3.436,5.933V3.111c0.004-0.018,0.01-0.027,0.014-0.038C3.376,3.076,3.314,3.076,3.265,3.076
		c-0.038,0-0.066,0.036-0.066,0.057v3.043L3.445,5.97C3.442,5.954,3.436,5.944,3.436,5.933 M9.284,5.201
		c0.097-0.019,0.131-0.025,0.131-0.188V4.107c0-0.172-0.047-0.179-0.131-0.186V3.866h0.479c0.104,0,0.418,0.019,0.418,0.359
		c0,0.253-0.153,0.318-0.235,0.354l0.301,0.582c0.02,0.039,0.042,0.041,0.061,0.041v0.052h-0.304L9.696,4.611H9.654v0.402
		c0,0.161,0.033,0.167,0.131,0.188v0.052h-0.5V5.201z M9.087,5.972h1.475V3.653c0-0.266-0.137-0.401-0.336-0.489
		C10.024,3.08,9.758,3.061,9.539,3.061c-0.151,0-0.277,0.01-0.359,0.01c-0.011,0-0.046,0.004-0.078,0.015
		C9.078,3.095,9.056,3.111,9.049,3.119v2.814C9.049,5.954,9.067,5.972,9.087,5.972 M6.741,5.987l0.252,0.211V3.132
		c0-0.021-0.031-0.057-0.066-0.057c-0.048,0-0.113,0-0.186-0.002c0.006,0.01,0.011,0.021,0.013,0.038v2.822
		C6.754,5.952,6.75,5.972,6.741,5.987 M8.954,5.933V3.111c0.002-0.016,0.007-0.027,0.011-0.038C8.892,3.076,8.832,3.076,8.779,3.076
		c-0.035,0-0.066,0.036-0.066,0.057v3.053l0.25-0.211C8.959,5.96,8.954,5.947,8.954,5.933"/>
</g>
</svg>
